<svg version="1.1" id="Layer_1" xmlns="http://www.w3.org/2000/svg" xmlns:xlink="http://www.w3.org/1999/xlink" x="0px" y="0px"
	 width="100%" viewBox="0 0 500 281" enable-background="new 0 0 500 281" xml:space="preserve">
<path fill="#000000" opacity="1.000000" stroke="none" 
	d="
M337.000000,282.000000 
	C224.666687,282.000000 112.833374,282.000000 1.000045,282.000000 
	C1.000030,188.333374 1.000030,94.666740 1.000015,1.000083 
	C167.666595,1.000055 334.333191,1.000055 500.999817,1.000028 
	C500.999878,94.666588 500.999878,188.333176 500.999939,281.999878 
	C446.500000,282.000000 392.000000,282.000000 337.000000,282.000000 
M411.000000,93.999695 
	C411.000000,93.999695 410.951080,93.933182 410.225586,93.983559 
	C406.538788,96.658318 402.851959,99.333076 398.822449,102.613899 
	C395.310547,103.656853 395.097900,105.894485 396.351318,108.904610 
	C399.261932,115.894356 400.383209,116.448677 407.538208,114.002373 
	C407.847412,113.896637 408.175018,113.844780 408.752197,113.544617 
	C408.911407,113.367714 408.997650,113.160431 408.935120,112.990372 
	C408.935120,112.990372 408.987396,113.077431 409.860321,113.062828 
	C410.216888,113.674576 410.883698,114.285568 410.885193,114.898178 
	C410.938660,136.929993 410.930054,158.961945 410.930054,181.077972 
	C411.497040,181.003006 412.149017,180.916809 413.740967,180.966553 
	C418.036255,180.926880 422.331543,180.887207 427.512024,180.984680 
	C427.986847,179.833786 428.833649,178.687927 428.849274,177.530838 
	C428.872711,175.797806 428.045441,174.057617 428.040558,172.319183 
	C427.979004,150.327576 427.953644,128.335556 428.045013,106.344162 
	C428.060577,102.594452 428.836578,98.851967 428.941956,95.097183 
	C429.016876,92.428055 427.857361,90.953613 424.126007,92.970482 
	C421.092010,92.935692 418.058044,92.900909 414.757111,92.232620 
	C413.486816,92.800842 412.216522,93.369064 411.000000,93.999695 
M258.996582,109.703278 
	C259.392517,110.081833 259.788452,110.460388 260.729553,111.284264 
	C263.540771,116.166824 266.351990,121.049393 268.975494,126.783463 
	C267.598572,127.178871 266.240082,127.666138 264.840240,127.947441 
	C262.897736,128.337799 260.924194,128.573502 258.093414,129.010330 
	C257.758331,129.291534 257.131256,129.571396 257.129974,129.854111 
	C257.055115,146.282623 257.011353,162.711472 257.091003,179.139648 
	C257.093750,179.708359 258.379913,180.270844 259.979767,180.977966 
	C264.334564,180.930023 268.689392,180.882095 273.917236,180.964081 
	C274.285461,179.527084 274.960815,178.092651 274.972748,176.652695 
	C275.059906,166.154068 275.013672,155.654327 275.936005,145.024643 
	C280.056824,145.015854 284.188232,145.194595 288.296356,144.961823 
	C299.051819,144.352402 308.173157,140.853989 313.646484,129.884552 
	C318.783661,121.170074 317.489929,112.496284 312.664337,104.363327 
	C307.456268,95.585716 299.369080,91.482773 288.108185,92.013336 
	C278.408752,92.058922 268.709290,92.104515 258.135162,92.027466 
	C256.455200,97.810883 255.631744,103.551979 258.986115,109.013359 
	C258.986115,109.013359 258.912018,109.010918 258.996582,109.703278 
M438.922729,107.973885 
	C447.599243,108.017105 456.275726,108.060333 464.978027,108.916092 
	C462.633301,116.231636 460.288544,123.547173 457.285645,131.169037 
	C457.189636,131.634140 457.093628,132.099228 457.062012,132.526855 
	C457.062012,132.526855 457.042725,132.454910 456.329102,132.944611 
	C454.523132,139.299667 452.717163,145.654709 450.988983,152.000290 
	C450.988983,152.000290 450.976959,151.922882 450.185486,151.985321 
	C449.788666,152.391525 449.191956,152.728806 449.024597,153.214127 
	C445.871704,162.359299 442.769623,171.521973 439.605042,180.833664 
	C440.024048,180.833664 440.953033,180.833664 442.822479,180.970520 
	C447.740967,180.970520 452.659454,180.970520 457.609833,180.970520 
	C458.092987,179.274567 458.527771,177.748260 459.665497,175.870712 
	C464.118713,170.708801 463.621124,164.046249 465.003174,157.915680 
	C465.003174,157.915680 464.921631,157.984177 465.155670,157.917725 
	C465.155670,157.917725 465.573425,157.711151 465.942932,156.991562 
	C466.282135,155.736023 466.621338,154.480484 467.664856,152.867233 
	C468.781006,151.300797 470.434174,149.878540 470.901520,148.137894 
	C471.873352,144.518112 472.216888,140.729614 473.118622,136.313080 
	C477.217621,129.068405 479.907776,121.343414 481.741943,112.818718 
	C485.136078,107.236771 487.757629,101.439079 486.960205,93.878212 
	C486.919312,93.620895 486.878418,93.363571 486.706268,92.221992 
	C470.796753,92.206512 454.887268,92.191032 438.100342,92.011940 
	C437.425415,92.272964 436.169556,92.518295 436.162018,92.797371 
	C436.033142,97.567055 436.028595,102.341576 436.133240,107.112038 
	C436.138855,107.368744 437.347046,107.599068 438.922729,107.973885 
M194.008682,128.040070 
	C194.008682,116.091331 194.008682,104.142593 194.008682,91.870239 
	C193.269958,92.106552 192.136673,92.469078 190.091553,92.972145 
	C186.400818,92.934547 182.710068,92.896942 178.655045,92.187714 
	C177.770096,93.605988 176.130676,95.016151 176.115341,96.443764 
	C175.935791,113.144119 176.000366,129.847107 176.000488,146.549393 
	C176.000549,155.085983 175.818558,163.628616 176.101334,172.155823 
	C176.197983,175.069839 177.460968,177.945175 179.088470,180.982819 
	C183.441193,180.932755 187.793915,180.882690 193.007874,180.960037 
	C193.355667,179.504730 193.992920,178.051804 194.004883,176.593750 
	C194.090897,166.097885 194.050140,155.600952 194.976944,145.016266 
	C204.640381,145.051620 214.303818,145.086990 223.961609,146.039413 
	C223.961472,156.665848 223.993607,167.292480 223.933517,177.918579 
	C223.921738,180.002060 223.972092,181.677292 227.735001,180.970367 
	C231.878662,180.924408 236.022324,180.878464 241.024475,180.959015 
	C241.367294,179.507111 242.001770,178.056473 242.008194,176.603088 
	C242.079285,160.519745 241.943817,144.434952 242.090027,128.352615 
	C242.193192,117.006798 242.762863,105.664879 242.833862,94.319405 
	C242.847626,92.117966 241.159851,90.913864 238.044571,92.982681 
	C234.400421,92.973358 230.756256,92.964043 226.764832,92.250336 
	C225.845337,92.699158 224.123215,93.152695 224.125824,93.596085 
	C224.170166,101.131813 224.664978,108.669998 224.547302,116.199608 
	C224.480927,120.445145 223.483398,124.676140 221.983780,128.956467 
	C212.696213,128.960022 203.408646,128.963577 194.008682,128.040070 
M382.016815,105.229622 
	C378.200928,101.041985 373.943054,97.623459 367.274933,97.006165 
	C365.795258,96.361359 364.315552,95.716553 362.783447,94.267654 
	C356.949738,92.731468 351.171661,90.514297 344.244232,92.699799 
	C338.875793,92.793076 333.507355,92.886345 327.782379,92.353142 
	C327.193237,94.508865 326.097137,96.664680 326.097473,98.820312 
	C326.099670,112.545555 326.393372,126.270439 326.478607,139.996140 
	C326.505249,144.290817 326.073517,148.586975 326.047180,152.883667 
	C325.998749,160.785416 326.005096,168.690414 326.214142,176.588104 
	C326.252014,178.018295 327.369019,179.419922 328.917908,180.970032 
	C331.735260,180.979294 334.553406,181.035431 337.369873,180.989456 
	C348.116913,180.814072 358.982269,182.212006 369.221741,177.102875 
	C379.439514,172.004593 386.774353,164.802322 389.712036,152.819748 
	C390.480042,148.238297 391.730621,143.676285 391.916138,139.071365 
	C392.308563,129.328476 390.335052,119.959778 386.572266,110.895912 
	C385.561432,108.460991 385.409027,105.942558 382.003418,105.999451 
	C382.003418,105.999451 382.066223,105.954865 382.016815,105.229622 
M112.991417,134.700912 
	C113.696060,135.412308 114.400696,136.123703 115.683289,137.241348 
	C116.338715,138.552017 116.872131,139.942444 117.668663,141.160858 
	C124.698189,151.913498 132.123489,162.427399 138.697342,173.449905 
	C142.263504,179.429352 146.433060,182.305725 153.353256,181.043793 
	C155.292496,180.690140 157.331924,180.885880 160.164856,180.977585 
	C162.798096,181.556351 163.156784,180.176926 163.068985,177.947311 
	C162.722549,169.148758 162.260834,160.343628 162.303253,151.543152 
	C162.392090,133.114075 162.779495,114.686478 163.021225,96.257965 
	C163.039780,94.843651 162.876923,93.426956 162.798004,92.004417 
	C157.984497,92.004417 153.641953,92.264130 149.345490,91.930389 
	C145.159744,91.605255 143.902588,93.445465 143.934479,97.264870 
	C144.024719,108.075508 144.023254,118.887794 143.945160,129.698624 
	C143.896149,136.482086 143.643936,143.264084 143.522568,150.052292 
	C143.522568,150.052292 143.554779,150.028458 143.074799,149.463058 
	C142.073502,147.929504 141.072189,146.395950 140.018448,144.135620 
	C135.387344,136.617920 130.724319,129.119568 126.149025,121.568054 
	C125.091164,119.822044 124.565842,117.729141 123.395012,116.080215 
	C119.426544,110.491287 115.178200,105.100067 111.248207,99.485336 
	C109.665489,97.224113 108.830093,92.614594 107.309837,92.459808 
	C101.593452,91.877792 95.735023,92.690964 89.146545,93.375824 
	C89.097694,121.659813 89.033875,149.943817 89.070602,178.227692 
	C89.071732,179.096481 90.117821,179.963943 91.635483,180.969437 
	C96.032906,180.925217 100.430321,180.881012 105.729836,180.981766 
	C106.155090,179.600983 106.939163,178.222931 106.949615,176.839005 
	C107.044930,164.212006 107.005600,151.583984 107.005600,138.956268 
	C107.005600,135.121338 107.005600,131.286407 107.005600,127.473145 
	C109.186569,129.890045 111.074081,131.981750 112.987083,134.007645 
	C112.987083,134.007645 112.917770,134.020828 112.991417,134.700912 
M22.187695,158.275391 
	C20.846176,161.622711 19.372375,164.924377 18.197451,168.329193 
	C16.806026,172.361420 14.030639,176.203354 16.954029,180.977478 
	C20.100361,180.984222 23.290775,180.661102 26.382793,181.074295 
	C31.135868,181.709473 33.029995,179.435226 34.163750,175.241394 
	C34.518204,173.930237 36.555729,172.226944 37.887215,172.168442 
	C44.994522,171.856171 52.125526,171.895874 59.239799,172.104660 
	C60.499950,172.141647 62.732624,173.475479 62.798073,174.340454 
	C63.323376,181.283447 67.805977,181.542084 73.066734,181.032593 
	C75.693420,180.778198 78.355499,180.889252 81.763702,180.985153 
	C86.347893,180.727341 82.755630,177.980118 82.503700,177.239838 
	C80.092369,170.154205 77.242546,163.219757 74.678673,156.183563 
	C72.345284,149.779861 70.167458,143.318192 68.001663,136.855087 
	C66.127747,131.263046 64.489174,125.589928 62.524799,120.031021 
	C60.143703,113.292862 57.776382,106.528831 54.909912,99.992264 
	C53.522186,96.827766 51.008530,94.157028 48.200420,91.110573 
	C47.576862,91.176147 46.507786,91.059212 46.395187,91.334091 
	C43.860371,97.522095 41.267262,103.694901 39.022823,109.990952 
	C36.290684,117.655106 33.896675,125.439240 31.304956,133.154190 
	C28.524176,141.431931 25.683657,149.689621 22.187695,158.275391 
z"/>
<path fill="#3F03F3" opacity="1.000000" stroke="none" 
	d="
M104.827744,180.836807 
	C100.430321,180.881012 96.032906,180.925217 91.156708,180.442154 
	C90.753326,150.935669 90.828705,121.956459 91.374161,92.949783 
	C93.506874,92.914268 95.207413,93.130829 96.825348,92.857864 
	C102.674942,91.870964 105.945023,94.398491 109.061226,99.424171 
	C118.938316,115.353500 129.477509,130.872284 139.848251,146.916504 
	C141.142120,148.198288 142.348450,149.113373 143.554779,150.028458 
	C143.554779,150.028458 143.522568,150.052292 143.170197,150.375580 
	C143.586639,152.063873 144.355469,153.428864 145.124298,154.793854 
	C145.498932,154.649124 145.873566,154.504395 146.248199,154.359665 
	C146.248199,133.977768 146.248199,113.595879 146.248199,93.253975 
	C150.807983,93.253975 154.903030,93.253975 159.325394,93.253975 
	C159.325394,122.639381 159.325394,151.734497 159.325394,180.829620 
	C157.331924,180.885880 155.292496,180.690140 153.353256,181.043793 
	C146.433060,182.305725 142.263504,179.429352 138.697342,173.449905 
	C132.123489,162.427399 124.698189,151.913498 117.668663,141.160858 
	C116.872131,139.942444 116.338715,138.552017 115.376480,136.672485 
	C114.352371,135.409348 113.635071,134.715088 112.917770,134.020828 
	C112.917770,134.020828 112.987083,134.007645 113.278275,133.761185 
	C110.963890,129.425034 108.358307,125.335335 105.752724,121.245636 
	C105.444397,121.370674 105.136070,121.495712 104.827744,121.620758 
	C104.827744,141.359436 104.827744,161.098129 104.827744,180.836807 
z"/>
<path fill="#4004F3" opacity="1.000000" stroke="none" 
	d="
M328.138916,92.979614 
	C333.507355,92.886345 338.875793,92.793076 345.056854,92.825836 
	C351.524933,93.658501 357.180420,94.365120 362.835876,95.071747 
	C364.315552,95.716553 365.795258,96.361359 367.758789,97.397255 
	C372.850525,100.510521 377.458374,103.232697 382.066223,105.954865 
	C382.066223,105.954865 382.003418,105.999451 381.696350,106.231506 
	C389.241882,117.425644 390.425476,129.950241 389.846191,142.861313 
	C389.691162,146.316818 389.270294,149.760391 388.971497,153.209442 
	C386.774353,164.802322 379.439514,172.004593 369.221741,177.102875 
	C358.982269,182.212006 348.116913,180.814072 337.369873,180.989456 
	C334.553406,181.035431 331.735260,180.979294 328.453857,180.444962 
	C328.039490,150.939804 328.089203,121.959709 328.138916,92.979614 
M372.719299,122.961617 
	C372.560089,122.776764 372.388763,122.603882 372.010254,121.685875 
	C370.227783,119.220291 368.954071,115.947449 366.566132,114.442535 
	C359.778748,110.164993 352.261261,107.623878 343.126648,107.996780 
	C342.679413,109.394028 341.850464,110.789261 341.843079,112.188835 
	C341.753448,129.118408 341.777954,146.048630 341.799652,162.978653 
	C341.801270,164.238953 342.009430,165.498978 342.139038,166.955048 
	C345.575409,166.955048 348.798706,167.491638 351.770508,166.854706 
	C360.784637,164.922775 369.596985,162.384827 373.660339,151.735687 
	C374.401733,148.673950 375.562012,145.644135 375.798187,142.543900 
	C376.307617,135.857361 376.700867,129.080551 373.027679,122.934822 
	C373.027679,122.934822 373.087036,123.022133 372.719299,122.961617 
z"/>
<path fill="#3F02F3" opacity="1.000000" stroke="none" 
	d="
M192.146637,180.832611 
	C187.793915,180.882690 183.441193,180.932755 178.642563,180.453949 
	C178.200638,152.634933 178.189896,125.344749 178.243347,98.054703 
	C178.246735,96.322411 178.749100,94.591110 179.019333,92.859344 
	C182.710068,92.896942 186.400818,92.934547 190.955734,93.105049 
	C191.968719,94.860458 192.233170,96.481949 192.247482,98.105644 
	C192.337723,108.344231 192.372421,118.583305 192.506165,129.231262 
	C202.752457,129.696289 212.918030,129.752274 223.485046,129.832016 
	C227.112640,130.231888 226.652603,127.956238 226.677338,126.001022 
	C226.816635,114.985519 226.966095,103.970139 227.112091,92.954720 
	C230.756256,92.964043 234.400421,92.973358 238.894501,93.147522 
	C239.881149,95.112267 240.135101,96.912048 240.137009,98.712090 
	C240.166077,126.085541 240.162186,153.459030 240.165985,180.832520 
	C236.022324,180.878464 231.878662,180.924408 227.262360,180.443634 
	C226.788712,169.516113 226.799652,159.115295 226.775711,148.714569 
	C226.771408,146.843430 227.406235,144.358185 223.967255,145.122360 
	C214.303818,145.086990 204.640381,145.051620 194.090027,145.026489 
	C192.847885,146.526062 192.197327,148.012939 192.184937,149.505127 
	C192.098312,159.947006 192.143570,170.389984 192.146637,180.832611 
z"/>
<path fill="#4003F3" opacity="1.000000" stroke="none" 
	d="
M269.163177,125.931961 
	C266.351990,121.049393 263.540771,116.166824 260.449371,110.679878 
	C259.750122,109.720634 259.331085,109.365776 258.912018,109.010918 
	C258.912018,109.010918 258.986115,109.013359 259.250305,108.637436 
	C259.384308,103.238777 259.254089,98.216042 259.580994,93.131622 
	C269.705811,92.983009 279.373535,92.896080 289.433899,92.882011 
	C291.107544,93.260178 292.383881,93.587036 293.670349,93.867455 
	C307.444733,96.869911 313.990479,104.896889 313.871460,118.947571 
	C313.839661,122.703667 313.286041,126.455338 312.972015,130.209045 
	C308.173157,140.853989 299.051819,144.352402 288.296356,144.961823 
	C284.188232,145.194595 280.056824,145.015854 275.042542,145.047455 
	C273.782227,146.525314 273.110321,147.977676 273.097412,149.435867 
	C273.004578,159.901306 273.045654,170.367920 273.044189,180.834167 
	C268.689392,180.882095 264.334564,180.930023 259.525360,180.449982 
	C259.072296,163.334351 259.073669,146.746689 259.525635,130.087616 
	C263.776215,130.016190 267.576172,130.016190 272.536041,130.016190 
	C270.878418,128.008972 270.020782,126.970467 269.163177,125.931961 
M298.315277,113.792374 
	C297.657837,112.906288 297.166077,111.794197 296.315918,111.171051 
	C291.071655,107.327118 285.013916,107.843269 278.313293,107.997421 
	C277.674225,108.062813 277.035126,108.128204 276.026337,108.231430 
	C279.829193,114.724037 283.430542,120.971161 287.167114,127.136345 
	C287.675140,127.974533 288.840729,128.907959 289.733948,128.941452 
	C297.467529,129.231506 302.314453,121.347427 298.315277,113.792374 
z"/>
<path fill="#4004F3" opacity="1.000000" stroke="none" 
	d="
M81.001572,180.835007 
	C78.355499,180.889252 75.693420,180.778198 73.066734,181.032593 
	C67.805977,181.542084 63.323376,181.283447 62.798073,174.340454 
	C62.732624,173.475479 60.499950,172.141647 59.239799,172.104660 
	C52.125526,171.895874 44.994522,171.856171 37.887215,172.168442 
	C36.555729,172.226944 34.518204,173.930237 34.163750,175.241394 
	C33.029995,179.435226 31.135868,181.709473 26.382793,181.074295 
	C23.290775,180.661102 20.100361,180.984222 16.562035,180.558380 
	C18.734585,172.758270 21.299133,165.377274 24.052395,157.685593 
	C31.519497,137.327850 38.774952,117.272385 46.113461,97.247345 
	C46.810307,95.345802 48.027363,93.634895 49.084229,92.202087 
	C59.777554,121.990799 70.389565,151.412903 81.001572,180.835007 
M43.057610,147.634415 
	C42.222244,150.427551 41.227470,153.188370 40.650234,156.033875 
	C40.480671,156.869751 41.462475,158.764984 41.971992,158.785324 
	C47.162247,158.992233 52.363960,158.911804 57.282291,158.911804 
	C55.289864,152.007294 53.554771,145.994522 51.908348,139.218658 
	C50.908581,135.940140 49.908810,132.661636 48.909042,129.383118 
	C48.538311,129.365143 48.167580,129.347168 47.796848,129.329193 
	C46.308182,135.174042 44.819515,141.018906 43.057610,147.634415 
z"/>
<path fill="#4004F3" opacity="1.000000" stroke="none" 
	d="
M457.042725,132.454910 
	C457.042725,132.454910 457.062012,132.526855 457.098877,132.615784 
	C457.135742,132.704727 457.319672,132.775192 457.773865,132.819244 
	C460.994934,125.279411 463.812622,117.713005 466.440247,110.081161 
	C466.670868,109.411240 465.655823,108.312454 464.755646,107.262802 
	C455.552032,107.049370 446.812164,106.985992 438.001831,106.468201 
	C438.278870,101.612625 438.626343,97.211456 439.438049,92.890106 
	C455.547363,93.015366 471.192444,93.060806 486.837555,93.106255 
	C486.878418,93.363571 486.919312,93.620895 486.665955,94.473938 
	C484.544525,100.636330 482.717346,106.203003 480.634705,112.029694 
	C477.606110,120.531891 474.832977,128.774063 471.804321,137.271393 
	C470.019379,142.759354 468.489960,147.992157 466.960510,153.224960 
	C466.621338,154.480484 466.282135,155.736023 465.684113,157.454056 
	C465.277344,158.080673 465.109467,158.103210 464.921631,157.984177 
	C464.921631,157.984177 465.003174,157.915680 464.689514,158.050934 
	C463.569824,160.487518 462.666290,162.760193 461.980042,165.096695 
	C460.897491,168.782562 459.960907,172.511322 458.962555,176.221939 
	C458.527771,177.748260 458.092987,179.274567 457.609833,180.970520 
	C452.659454,180.970520 447.740967,180.970520 442.409790,180.537079 
	C443.662323,175.491135 445.466888,170.923019 446.953888,166.253738 
	C448.458557,161.528900 449.648895,156.703964 450.976959,151.922882 
	C450.976959,151.922882 450.988983,152.000290 451.329712,152.049438 
	C453.632233,146.657806 455.665863,141.240860 457.487213,135.753479 
	C457.801239,134.807373 457.213776,133.562027 457.042725,132.454910 
z"/>
<path fill="#4409F3" opacity="1.000000" stroke="none" 
	d="
M408.494049,113.767822 
	C408.175018,113.844780 407.847412,113.896637 407.538208,114.002373 
	C400.383209,116.448677 399.261932,115.894356 396.351318,108.904610 
	C395.097900,105.894485 395.310547,103.656853 399.348389,102.318634 
	C402.010559,100.807137 404.264343,99.754051 406.247528,98.325348 
	C407.974060,97.081558 409.395050,95.413666 410.951080,93.933182 
	C410.951080,93.933182 411.000000,93.999695 411.183838,94.343689 
	C412.586487,94.080498 413.805267,93.473312 415.024048,92.866119 
	C418.058044,92.900909 421.092010,92.935692 424.962952,93.022842 
	C426.067078,94.787430 426.563599,96.499168 426.567139,98.211929 
	C426.624115,125.757057 426.618347,153.302307 426.626831,180.847534 
	C422.331543,180.887207 418.036255,180.926880 413.273071,180.440506 
	C412.805176,157.179352 412.805176,134.444229 412.805176,110.685280 
	C411.117401,111.742821 410.052399,112.410133 408.987396,113.077438 
	C408.987396,113.077431 408.935120,112.990372 408.958923,113.132378 
	C408.844910,113.463730 408.682007,113.628212 408.494049,113.767822 
z"/>
<path fill="#E8E1FE" opacity="1.000000" stroke="none" 
	d="
M159.745117,180.903595 
	C159.325394,151.734497 159.325394,122.639381 159.325394,93.253975 
	C154.903030,93.253975 150.807983,93.253975 146.248199,93.253975 
	C146.248199,113.595879 146.248199,133.977768 146.248199,154.359665 
	C145.873566,154.504395 145.498932,154.649124 145.124298,154.793854 
	C144.355469,153.428864 143.586639,152.063873 143.150360,150.372803 
	C143.643936,143.264084 143.896149,136.482086 143.945160,129.698624 
	C144.023254,118.887794 144.024719,108.075508 143.934479,97.264870 
	C143.902588,93.445465 145.159744,91.605255 149.345490,91.930389 
	C153.641953,92.264130 157.984497,92.004417 162.798004,92.004417 
	C162.876923,93.426956 163.039780,94.843651 163.021225,96.257965 
	C162.779495,114.686478 162.392090,133.114075 162.303253,151.543152 
	C162.260834,160.343628 162.722549,169.148758 163.068985,177.947311 
	C163.156784,180.176926 162.798096,181.556351 159.745117,180.903595 
z"/>
<path fill="#F4F1FE" opacity="1.000000" stroke="none" 
	d="
M81.382637,180.910080 
	C70.389565,151.412903 59.777554,121.990799 49.087173,92.058975 
	C49.008797,91.549255 49.004642,91.262733 49.004642,91.262733 
	C51.008530,94.157028 53.522186,96.827766 54.909912,99.992264 
	C57.776382,106.528831 60.143703,113.292862 62.524799,120.031021 
	C64.489174,125.589928 66.127747,131.263046 68.001663,136.855087 
	C70.167458,143.318192 72.345284,149.779861 74.678673,156.183563 
	C77.242546,163.219757 80.092369,170.154205 82.503700,177.239838 
	C82.755630,177.980118 86.347893,180.727341 81.382637,180.910080 
z"/>
<path fill="#DBD0FD" opacity="1.000000" stroke="none" 
	d="
M240.595230,180.895752 
	C240.162186,153.459030 240.166077,126.085541 240.137009,98.712090 
	C240.135101,96.912048 239.881149,95.112267 239.348389,93.102623 
	C241.159851,90.913864 242.847626,92.117966 242.833862,94.319405 
	C242.762863,105.664879 242.193192,117.006798 242.090027,128.352615 
	C241.943817,144.434952 242.079285,160.519745 242.008194,176.603088 
	C242.001770,178.056473 241.367294,179.507111 240.595230,180.895752 
z"/>
<path fill="#FFFFFF" opacity="1.000000" stroke="none" 
	d="
M90.904083,92.977257 
	C90.828705,121.956459 90.753326,150.935669 90.677338,180.373444 
	C90.117821,179.963943 89.071732,179.096481 89.070602,178.227692 
	C89.033875,149.943817 89.097694,121.659813 89.781891,93.200150 
	C90.417229,93.024467 90.904083,92.977257 90.904083,92.977257 
z"/>
<path fill="#F0EBFE" opacity="1.000000" stroke="none" 
	d="
M91.374161,92.949783 
	C90.904083,92.977257 90.417229,93.024467 90.173515,93.002975 
	C95.735023,92.690964 101.593452,91.877792 107.309837,92.459808 
	C108.830093,92.614594 109.665489,97.224113 111.248207,99.485336 
	C115.178200,105.100067 119.426544,110.491287 123.395012,116.080215 
	C124.565842,117.729141 125.091164,119.822044 126.149025,121.568054 
	C130.724319,129.119568 135.387344,136.617920 139.972961,144.921875 
	C139.871902,145.988678 139.816299,146.269241 139.760696,146.549820 
	C129.477509,130.872284 118.938316,115.353500 109.061226,99.424171 
	C105.945023,94.398491 102.674942,91.870964 96.825348,92.857864 
	C95.207413,93.130829 93.506874,92.914268 91.374161,92.949783 
z"/>
<path fill="#FFFFFF" opacity="1.000000" stroke="none" 
	d="
M178.837189,92.523529 
	C178.749100,94.591110 178.246735,96.322411 178.243347,98.054703 
	C178.189896,125.344749 178.200638,152.634933 178.193848,180.381622 
	C177.460968,177.945175 176.197983,175.069839 176.101334,172.155823 
	C175.818558,163.628616 176.000549,155.085983 176.000488,146.549393 
	C176.000366,129.847107 175.935791,113.144119 176.115341,96.443764 
	C176.130676,95.016151 177.770096,93.605988 178.837189,92.523529 
z"/>
<path fill="#F2EEFE" opacity="1.000000" stroke="none" 
	d="
M48.602531,91.186653 
	C49.004642,91.262733 49.008797,91.549255 49.005852,91.692368 
	C48.027363,93.634895 46.810307,95.345802 46.113461,97.247345 
	C38.774952,117.272385 31.519497,137.327850 23.803753,157.676086 
	C23.366398,157.977249 22.869205,157.956055 22.869205,157.956055 
	C25.683657,149.689621 28.524176,141.431931 31.304956,133.154190 
	C33.896675,125.439240 36.290684,117.655106 39.022823,109.990952 
	C41.267262,103.694901 43.860371,97.522095 46.395187,91.334091 
	C46.507786,91.059212 47.576862,91.176147 48.602531,91.186653 
z"/>
<path fill="#D1C3FC" opacity="1.000000" stroke="none" 
	d="
M409.423859,113.070137 
	C410.052399,112.410133 411.117401,111.742821 412.805176,110.685280 
	C412.805176,134.444229 412.805176,157.179352 412.803101,180.372528 
	C412.149017,180.916809 411.497040,181.003006 410.930054,181.077972 
	C410.930054,158.961945 410.938660,136.929993 410.885193,114.898178 
	C410.883698,114.285568 410.216888,113.674576 409.423859,113.070137 
z"/>
<path fill="#FBFAFF" opacity="1.000000" stroke="none" 
	d="
M105.278793,180.909286 
	C104.827744,161.098129 104.827744,141.359436 104.827744,121.620758 
	C105.136070,121.495712 105.444397,121.370674 105.752724,121.245636 
	C108.358307,125.335335 110.963890,129.425034 113.265533,133.794083 
	C111.074081,131.981750 109.186569,129.890045 107.005600,127.473145 
	C107.005600,131.286407 107.005600,135.121338 107.005600,138.956268 
	C107.005600,151.583984 107.044930,164.212006 106.949615,176.839005 
	C106.939163,178.222931 106.155090,179.600983 105.278793,180.909286 
z"/>
<path fill="#CFC0FC" opacity="1.000000" stroke="none" 
	d="
M327.960632,92.666382 
	C328.089203,121.959709 328.039490,150.939804 327.988831,180.377304 
	C327.369019,179.419922 326.252014,178.018295 326.214142,176.588104 
	C326.005096,168.690414 325.998749,160.785416 326.047180,152.883667 
	C326.073517,148.586975 326.505249,144.290817 326.478607,139.996140 
	C326.393372,126.270439 326.099670,112.545555 326.097473,98.820312 
	C326.097137,96.664680 327.193237,94.508865 327.960632,92.666382 
z"/>
<path fill="#F4F1FE" opacity="1.000000" stroke="none" 
	d="
M313.309265,130.046799 
	C313.286041,126.455338 313.839661,122.703667 313.871460,118.947571 
	C313.990479,104.896889 307.444733,96.869911 293.670349,93.867455 
	C292.383881,93.587036 291.107544,93.260178 289.435303,92.723694 
	C289.044128,92.492500 289.040131,92.175880 289.040131,92.175880 
	C299.369080,91.482773 307.456268,95.585716 312.664337,104.363327 
	C317.489929,112.496284 318.783661,121.170074 313.309265,130.046799 
z"/>
<path fill="#FFFFFF" opacity="1.000000" stroke="none" 
	d="
M226.938461,92.602524 
	C226.966095,103.970139 226.816635,114.985519 226.677338,126.001022 
	C226.652603,127.956238 227.112640,130.231888 223.476501,129.601196 
	C223.066498,129.346619 222.905319,128.913681 222.905319,128.913681 
	C223.483398,124.676140 224.480927,120.445145 224.547302,116.199608 
	C224.664978,108.669998 224.170166,101.131813 224.125824,93.596085 
	C224.123215,93.152695 225.845337,92.699158 226.938461,92.602524 
z"/>
<path fill="#E5DDFD" opacity="1.000000" stroke="none" 
	d="
M223.964432,145.580887 
	C227.406235,144.358185 226.771408,146.843430 226.775711,148.714569 
	C226.799652,159.115295 226.788712,169.516113 226.788193,180.375122 
	C223.972092,181.677292 223.921738,180.002060 223.933517,177.918579 
	C223.993607,167.292480 223.961472,156.665848 223.964432,145.580887 
z"/>
<path fill="#FFFFFF" opacity="1.000000" stroke="none" 
	d="
M427.069427,180.916107 
	C426.618347,153.302307 426.624115,125.757057 426.567139,98.211929 
	C426.563599,96.499168 426.067078,94.787430 425.411316,92.939774 
	C427.857361,90.953613 429.016876,92.428055 428.941956,95.097183 
	C428.836578,98.851967 428.060577,102.594452 428.045013,106.344162 
	C427.953644,128.335556 427.979004,150.327576 428.040558,172.319183 
	C428.045441,174.057617 428.872711,175.797806 428.849274,177.530838 
	C428.833649,178.687927 427.986847,179.833786 427.069427,180.916107 
z"/>
<path fill="#FFFFFF" opacity="1.000000" stroke="none" 
	d="
M259.075012,130.159042 
	C259.073669,146.746689 259.072296,163.334351 259.069397,180.379120 
	C258.379913,180.270844 257.093750,179.708359 257.091003,179.139648 
	C257.011353,162.711472 257.055115,146.282623 257.129974,129.854111 
	C257.131256,129.571396 257.758331,129.291534 258.548218,129.264496 
	C259.027008,129.732117 259.050995,129.945572 259.075012,130.159042 
z"/>
<path fill="#F4F1FE" opacity="1.000000" stroke="none" 
	d="
M389.341766,153.014587 
	C389.270294,149.760391 389.691162,146.316818 389.846191,142.861313 
	C390.425476,129.950241 389.241882,117.425644 381.719116,106.200485 
	C385.409027,105.942558 385.561432,108.460991 386.572266,110.895912 
	C390.335052,119.959778 392.308563,129.328476 391.916138,139.071365 
	C391.730621,143.676285 390.480042,148.238297 389.341766,153.014587 
z"/>
<path fill="#FFFFFF" opacity="1.000000" stroke="none" 
	d="
M192.425461,128.822220 
	C192.372421,118.583305 192.337723,108.344231 192.247482,98.105644 
	C192.233170,96.481949 191.968719,94.860458 191.411652,93.034775 
	C192.136673,92.469078 193.269958,92.106552 194.008682,91.870239 
	C194.008682,104.142593 194.008682,116.091331 193.780579,128.499130 
	C193.176804,128.912857 192.801132,128.867538 192.425461,128.822220 
z"/>
<path fill="#F1ECFE" opacity="1.000000" stroke="none" 
	d="
M273.480713,180.899124 
	C273.045654,170.367920 273.004578,159.901306 273.097412,149.435867 
	C273.110321,147.977676 273.782227,146.525314 274.579315,145.112595 
	C275.013672,155.654327 275.059906,166.154068 274.972748,176.652695 
	C274.960815,178.092651 274.285461,179.527084 273.480713,180.899124 
z"/>
<path fill="#DCD1FD" opacity="1.000000" stroke="none" 
	d="
M192.577255,180.896332 
	C192.143570,170.389984 192.098312,159.947006 192.184937,149.505127 
	C192.197327,148.012939 192.847885,146.526062 193.626343,145.070557 
	C194.050140,155.600952 194.090897,166.097885 194.004883,176.593750 
	C193.992920,178.051804 193.355667,179.504730 192.577255,180.896332 
z"/>
<path fill="#F2EEFE" opacity="1.000000" stroke="none" 
	d="
M450.581238,151.954102 
	C449.648895,156.703964 448.458557,161.528900 446.953888,166.253738 
	C445.466888,170.923019 443.662323,175.491135 441.939545,180.468658 
	C440.953033,180.833664 440.024048,180.833664 439.605042,180.833664 
	C442.769623,171.521973 445.871704,162.359299 449.024597,153.214127 
	C449.191956,152.728806 449.788666,152.391525 450.581238,151.954102 
z"/>
<path fill="#F2EEFE" opacity="1.000000" stroke="none" 
	d="
M465.219360,107.412857 
	C465.655823,108.312454 466.670868,109.411240 466.440247,110.081161 
	C463.812622,117.713005 460.994934,125.279411 458.030182,132.369461 
	C457.869507,131.537994 457.906647,131.200348 457.943817,130.862717 
	C460.288544,123.547173 462.633301,116.231636 465.099426,108.363220 
	C465.220795,107.810356 465.219360,107.412857 465.219360,107.412857 
z"/>
<path fill="#EDE7FE" opacity="1.000000" stroke="none" 
	d="
M472.059814,137.016235 
	C474.832977,128.774063 477.606110,120.531891 480.680603,112.357849 
	C481.000366,112.646103 481.018738,112.866211 481.037140,113.086327 
	C479.907776,121.343414 477.217621,129.068405 472.778931,136.665100 
	C472.439240,137.017105 472.059814,137.016235 472.059814,137.016235 
z"/>
<path fill="#D7CAFC" opacity="1.000000" stroke="none" 
	d="
M486.771912,92.664124 
	C471.192444,93.060806 455.547363,93.015366 439.438141,92.731415 
	C438.974030,92.492912 438.977753,92.175552 438.977753,92.175552 
	C454.887268,92.191032 470.796753,92.206512 486.771912,92.664124 
z"/>
<path fill="#F0EBFE" opacity="1.000000" stroke="none" 
	d="
M22.528450,158.115723 
	C22.869205,157.956055 23.366398,157.977249 23.615040,157.986755 
	C21.299133,165.377274 18.734585,172.758270 16.101774,180.488861 
	C14.030639,176.203354 16.806026,172.361420 18.197451,168.329193 
	C19.372375,164.924377 20.846176,161.622711 22.528450,158.115723 
z"/>
<path fill="#F4F1FE" opacity="1.000000" stroke="none" 
	d="
M481.389526,112.952522 
	C481.018738,112.866211 481.000366,112.646103 480.936066,112.097832 
	C482.717346,106.203003 484.544525,100.636330 486.594116,94.858093 
	C487.757629,101.439079 485.136078,107.236771 481.389526,112.952522 
z"/>
<path fill="#F2EEFE" opacity="1.000000" stroke="none" 
	d="
M456.685913,132.699768 
	C457.213776,133.562027 457.801239,134.807373 457.487213,135.753479 
	C455.665863,141.240860 453.632233,146.657806 451.290802,152.054169 
	C452.717163,145.654709 454.523132,139.299667 456.685913,132.699768 
z"/>
<path fill="#F2EEFE" opacity="1.000000" stroke="none" 
	d="
M459.314026,176.046326 
	C459.960907,172.511322 460.897491,168.782562 461.980042,165.096695 
	C462.666290,162.760193 463.569824,160.487518 464.732239,158.082764 
	C463.621124,164.046249 464.118713,170.708801 459.314026,176.046326 
z"/>
<path fill="#F4F1FE" opacity="1.000000" stroke="none" 
	d="
M471.804321,137.271393 
	C472.059814,137.016235 472.439240,137.017105 472.628967,137.013794 
	C472.216888,140.729614 471.873352,144.518112 470.901520,148.137894 
	C470.434174,149.878540 468.781006,151.300797 467.312683,153.046097 
	C468.489960,147.992157 470.019379,142.759354 471.804321,137.271393 
z"/>
<path fill="#EBE5FD" opacity="1.000000" stroke="none" 
	d="
M438.539062,92.093750 
	C438.977753,92.175552 438.974030,92.492912 438.973938,92.651604 
	C438.626343,97.211456 438.278870,101.612625 437.965668,106.696548 
	C437.999969,107.379311 437.995392,107.841675 437.995392,107.841675 
	C437.347046,107.599068 436.138855,107.368744 436.133240,107.112038 
	C436.028595,102.341576 436.033142,97.567055 436.162018,92.797371 
	C436.169556,92.518295 437.425415,92.272964 438.539062,92.093750 
z"/>
<path fill="#FFFFFF" opacity="1.000000" stroke="none" 
	d="
M259.123901,93.193298 
	C259.254089,98.216042 259.384308,103.238777 259.246277,108.674286 
	C255.631744,103.551979 256.455200,97.810883 258.585510,92.351257 
	C259.065186,92.847801 259.094543,93.020546 259.123901,93.193298 
z"/>
<path fill="#BFABFB" opacity="1.000000" stroke="none" 
	d="
M192.506165,129.231262 
	C192.801132,128.867538 193.176804,128.912857 193.836777,128.962646 
	C203.408646,128.963577 212.696213,128.960022 222.444550,128.935074 
	C222.905319,128.913681 223.066498,129.346619 223.075043,129.577454 
	C212.918030,129.752274 202.752457,129.696289 192.506165,129.231262 
z"/>
<path fill="#D5C7FD" opacity="1.000000" stroke="none" 
	d="
M259.580994,93.131622 
	C259.094543,93.020546 259.065186,92.847801 259.022858,92.412575 
	C268.709290,92.104515 278.408752,92.058922 288.574158,92.094604 
	C289.040131,92.175880 289.044128,92.492500 289.042694,92.650818 
	C279.373535,92.896080 269.705811,92.983009 259.580994,93.131622 
z"/>
<path fill="#F4F1FE" opacity="1.000000" stroke="none" 
	d="
M382.041504,105.592239 
	C377.458374,103.232697 372.850525,100.510521 368.113373,97.476562 
	C373.943054,97.623459 378.200928,101.041985 382.041504,105.592239 
z"/>
<path fill="#EBE5FD" opacity="1.000000" stroke="none" 
	d="
M259.525635,130.087616 
	C259.050995,129.945572 259.027008,129.732117 258.983459,129.197052 
	C260.924194,128.573502 262.897736,128.337799 264.840240,127.947441 
	C266.240082,127.666138 267.598572,127.178871 269.069336,126.357712 
	C270.020782,126.970467 270.878418,128.008972 272.536041,130.016190 
	C267.576172,130.016190 263.776215,130.016190 259.525635,130.087616 
z"/>
<path fill="#A587F9" opacity="1.000000" stroke="none" 
	d="
M438.459045,107.907776 
	C437.995392,107.841675 437.999969,107.379311 438.036133,107.150963 
	C446.812164,106.985992 455.552032,107.049370 464.755646,107.262802 
	C465.219360,107.412857 465.220795,107.810356 465.086517,107.956955 
	C456.275726,108.060333 447.599243,108.017105 438.459045,107.907776 
z"/>
<path fill="#EDE7FE" opacity="1.000000" stroke="none" 
	d="
M362.809662,94.669693 
	C357.180420,94.365120 351.524933,93.658501 345.446899,92.884201 
	C351.171661,90.514297 356.949738,92.731468 362.809662,94.669693 
z"/>
<path fill="#F4F1FE" opacity="1.000000" stroke="none" 
	d="
M410.588318,93.958366 
	C409.395050,95.413666 407.974060,97.081558 406.247528,98.325348 
	C404.264343,99.754051 402.010559,100.807137 399.519714,102.015610 
	C402.851959,99.333076 406.538788,96.658318 410.588318,93.958366 
z"/>
<path fill="#E8E1FE" opacity="1.000000" stroke="none" 
	d="
M139.848251,146.916504 
	C139.816299,146.269241 139.871902,145.988678 139.999191,145.285263 
	C141.072189,146.395950 142.073502,147.929504 143.314789,149.745758 
	C142.348450,149.113373 141.142120,148.198288 139.848251,146.916504 
z"/>
<path fill="#F4F1FE" opacity="1.000000" stroke="none" 
	d="
M414.890564,92.549377 
	C413.805267,93.473312 412.586487,94.080498 411.156982,94.312485 
	C412.216522,93.369064 413.486816,92.800842 414.890564,92.549377 
z"/>
<path fill="#FBFAFF" opacity="1.000000" stroke="none" 
	d="
M112.954590,134.360870 
	C113.635071,134.715088 114.352371,135.409348 115.087509,136.469360 
	C114.400696,136.123703 113.696060,135.412308 112.954590,134.360870 
z"/>
<path fill="#FFFFFF" opacity="1.000000" stroke="none" 
	d="
M258.954285,109.357101 
	C259.331085,109.365776 259.750122,109.720634 260.176788,110.457214 
	C259.788452,110.460388 259.392517,110.081833 258.954285,109.357101 
z"/>
<path fill="#D1C3FC" opacity="1.000000" stroke="none" 
	d="
M408.623108,113.656219 
	C408.682007,113.628212 408.844910,113.463730 408.996826,113.098572 
	C408.997650,113.160431 408.911407,113.367714 408.623108,113.656219 
z"/>
<path fill="#F2EEFE" opacity="1.000000" stroke="none" 
	d="
M457.614746,131.015869 
	C457.906647,131.200348 457.869507,131.537994 457.575989,132.325409 
	C457.319672,132.775192 457.135742,132.704727 457.066681,132.634521 
	C457.093628,132.099228 457.189636,131.634140 457.614746,131.015869 
z"/>
<path fill="#F2EEFE" opacity="1.000000" stroke="none" 
	d="
M465.038635,157.950958 
	C465.109467,158.103210 465.277344,158.080673 465.499359,157.813843 
	C465.573425,157.711151 465.155670,157.917725 465.038635,157.950958 
z"/>
<path fill="#000000" opacity="1.000000" stroke="none" 
	d="
M344.015106,108.143806 
	C352.261261,107.623878 359.778748,110.164993 366.566132,114.442535 
	C368.954071,115.947449 370.227783,119.220291 372.223145,122.202766 
	C372.628174,122.873962 372.845184,122.974785 373.087036,123.022133 
	C373.087036,123.022133 373.027679,122.934822 373.014099,123.395905 
	C372.987671,132.876312 372.974823,141.895615 372.583832,150.953369 
	C368.624725,158.237518 362.614014,162.311569 355.014252,164.546402 
	C345.263824,167.413696 343.184998,166.797882 343.144287,158.753769 
	C343.058868,141.885696 343.682587,125.014008 344.015106,108.143806 
z"/>
<path fill="#F9F8FF" opacity="1.000000" stroke="none" 
	d="
M343.570862,108.070297 
	C343.682587,125.014008 343.058868,141.885696 343.144287,158.753769 
	C343.184998,166.797882 345.263824,167.413696 355.014252,164.546402 
	C362.614014,162.311569 368.624725,158.237518 372.612549,151.295990 
	C373.052765,151.827026 373.086151,152.053848 373.119537,152.280655 
	C369.596985,162.384827 360.784637,164.922775 351.770508,166.854706 
	C348.798706,167.491638 345.575409,166.955048 342.139038,166.955048 
	C342.009430,165.498978 341.801270,164.238953 341.799652,162.978653 
	C341.777954,146.048630 341.753448,129.118408 341.843079,112.188835 
	C341.850464,110.789261 342.679413,109.394028 343.570862,108.070297 
z"/>
<path fill="#F0EBFE" opacity="1.000000" stroke="none" 
	d="
M373.389954,152.008179 
	C373.086151,152.053848 373.052765,151.827026 372.990662,151.257568 
	C372.974823,141.895615 372.987671,132.876312 372.965515,123.416580 
	C376.700867,129.080551 376.307617,135.857361 375.798187,142.543900 
	C375.562012,145.644135 374.401733,148.673950 373.389954,152.008179 
z"/>
<path fill="#F0EBFE" opacity="1.000000" stroke="none" 
	d="
M372.903168,122.991875 
	C372.845184,122.974785 372.628174,122.873962 372.320679,122.581314 
	C372.388763,122.603882 372.560089,122.776764 372.903168,122.991875 
z"/>
<path fill="#000000" opacity="1.000000" stroke="none" 
	d="
M279.013428,108.146492 
	C285.013916,107.843269 291.071655,107.327118 296.315918,111.171051 
	C297.166077,111.794197 297.657837,112.906288 298.674072,114.369934 
	C299.614197,119.997704 298.110260,124.096466 293.193329,126.117119 
	C291.864197,126.663353 289.054840,126.552094 288.577057,125.753784 
	C285.150055,120.027809 282.149445,114.046638 279.013428,108.146492 
z"/>
<path fill="#F2EEFE" opacity="1.000000" stroke="none" 
	d="
M278.663361,108.071960 
	C282.149445,114.046638 285.150055,120.027809 288.577057,125.753784 
	C289.054840,126.552094 291.864197,126.663353 293.193329,126.117119 
	C298.110260,124.096466 299.614197,119.997704 298.997528,114.528488 
	C302.314453,121.347427 297.467529,129.231506 289.733948,128.941452 
	C288.840729,128.907959 287.675140,127.974533 287.167114,127.136345 
	C283.430542,120.971161 279.829193,114.724037 276.026337,108.231430 
	C277.035126,108.128204 277.674225,108.062813 278.663361,108.071960 
z"/>
<path fill="#000000" opacity="1.000000" stroke="none" 
	d="
M51.819679,139.981766 
	C53.554771,145.994522 55.289864,152.007294 57.282291,158.911804 
	C52.363960,158.911804 47.162247,158.992233 41.971992,158.785324 
	C41.462475,158.764984 40.480671,156.869751 40.650234,156.033875 
	C41.227470,153.188370 42.222244,150.427551 43.428360,147.016388 
	C45.400318,142.450455 47.001530,138.502563 48.563564,134.651260 
	C49.615513,136.373383 50.717598,138.177567 51.819679,139.981766 
z"/>
<path fill="#EBE5FD" opacity="1.000000" stroke="none" 
	d="
M51.864014,139.600220 
	C50.717598,138.177567 49.615513,136.373383 48.563564,134.651260 
	C47.001530,138.502563 45.400318,142.450455 43.564980,146.631042 
	C44.819515,141.018906 46.308182,135.174042 47.796848,129.329193 
	C48.167580,129.347168 48.538311,129.365143 48.909042,129.383118 
	C49.908810,132.661636 50.908581,135.940140 51.864014,139.600220 
z"/>
</svg>